<svg xmlns="http://www.w3.org/2000/svg" xmlns:xlink="http://www.w3.org/1999/xlink" version="1.1" x="0px" y="0px" viewBox="0 0 100 125" style="enable-background:new 0 0 100 100;" xml:space="preserve"><g><path d="M61.7,44.5c5.5-3.8,9.2-10.1,9.2-17.3c0-11.5-9.4-20.8-20.8-20.8c-11.5,0-20.8,9.4-20.8,20.8c0,7.2,3.6,13.5,9.2,17.3   C26.6,49.2,18.3,60.6,18.3,74v11.1l1.3,0.9c7,4.8,18.3,7.6,30.4,7.6c12.1,0,23.4-2.8,30.4-7.6l1.3-0.9V74   C81.7,60.6,73.4,49.2,61.7,44.5z M75.7,81.9c-6.1,3.6-15.6,5.7-25.7,5.7s-19.6-2.1-25.7-5.7V74c0-14.2,11.5-25.7,25.7-25.7   S75.7,59.8,75.7,74V81.9z M50,12.4c8.2,0,14.8,6.7,14.8,14.8S58.2,42.1,50,42.1s-14.8-6.7-14.8-14.8S41.8,12.4,50,12.4z"/></g><text x="0" y="115" fill="#000000" font-size="5px" font-weight="bold" font-family="'Helvetica Neue', Helvetica, Arial-Unicode, Arial, Sans-serif">Created by mikicon</text><text x="0" y="120" fill="#000000" font-size="5px" font-weight="bold" font-family="'Helvetica Neue', Helvetica, Arial-Unicode, Arial, Sans-serif">from the Noun Project</text></svg>