<svg xmlns="http://www.w3.org/2000/svg" xmlns:xlink="http://www.w3.org/1999/xlink" xml:space="preserve" version="1.1" style="shape-rendering:geometricPrecision;text-rendering:geometricPrecision;image-rendering:optimizeQuality;" viewBox="0 0 322 273.75" x="0px" y="0px" fill-rule="evenodd" clip-rule="evenodd"><defs><style type="text/css">
   
    .fil0 {fill:black;fill-rule:nonzero}
   
  </style></defs><g><path class="fil0" d="M29 0l264 0c16,0 29,13 29,29l0 162c0,15 -13,28 -29,28l-264 0c-16,0 -29,-13 -29,-28l0 -162c0,-16 13,-29 29,-29zm274 196l-99 -84 -20 14c-14,10 -32,10 -45,0l-21 -14 -99 84c2,4 6,6 10,6l264 0c5,0 8,-2 10,-6zm-85 -95l87 74 0 -137 -87 63zm-201 74l87 -74 -87 -63 0 137zm5 -155l127 92c7,6 17,6 25,0l127 -92c-2,-2 -5,-3 -8,-3l-264 0c-3,0 -6,1 -7,3z"/></g><text x="0" y="234" fill="#000000" font-size="5px" font-weight="bold" font-family="'Helvetica Neue', Helvetica, Arial-Unicode, Arial, Sans-serif">Created by Iga</text><text x="0" y="239" fill="#000000" font-size="5px" font-weight="bold" font-family="'Helvetica Neue', Helvetica, Arial-Unicode, Arial, Sans-serif">from the Noun Project</text></svg>